<?xml version="1.0" encoding="UTF-8"?>
<svg id="Layer_1" data-name="Layer 1" xmlns="http://www.w3.org/2000/svg" viewBox="0 0 513.06 271.21">
  <defs>
    <style>
      .cls-1 {
        fill: #034b49;
      }
    </style>
  </defs>
  <path class="cls-1" d="M383.03,111.11c-23.21,2.2-21.81,41.96-.97,43.81,30.38,2.71,30.57-46.62.97-43.81M404.89,99.54v-9.13h25.63v87.07c-2.25,30.91-29.61,43.37-57.76,37.43-15.33-3.23-27.89-13.79-30.63-29.62h28.43c4.15,6.93,10.41,8.94,18.26,8.25,7.9-.7,14.88-7.99,14.88-16.05v-11.34c-12.28,13.69-35.02,14.09-48.76,2.35-24-20.51-19.5-69.08,13.1-78.22,13.21-3.7,27.47-1.09,36.83,9.28"/>
  <path class="cls-1" d="M271.12,178.5h-27.11v-54.07c0-.57-.53-2.7-.74-3.39-3.12-10.66-17.67-10.46-24.57-3.65-1.56,1.53-4.75,6.73-4.75,8.81v52.3h-27.11v-88.1h26.81v11.2l4.28-4.41c19.97-17.33,52.69-7.43,53.17,20.77v60.55Z"/>
  <rect class="cls-1" x="293.22" y="90.4" width="26.81" height="88.1"/>
  <path class="cls-1" d="M304.94,49.24c20.31-2.06,24.51,28.34,4.55,31.95-21.73,3.94-26.39-29.74-4.55-31.95"/>
  <path class="cls-1" d="M109.35,90.4v54.95c0,16.29,29.46,16.24,29.46-.59v-54.36h26.22v53.49c-.44,48.42-80.91,49.59-82.52,1.18v-54.67h26.83Z"/>
</svg>